<svg xmlns="http://www.w3.org/2000/svg" viewBox="0 0 64 64" role="img" aria-label="MusicBox">
  <defs>
    <linearGradient id="box" x1="10" y1="8" x2="54" y2="58" gradientUnits="userSpaceOnUse">
      <stop stop-color="#D7C0FF"/>
      <stop offset="0.48" stop-color="#7F00FF"/>
      <stop offset="1" stop-color="#2B0057"/>
    </linearGradient>
    <linearGradient id="shine" x1="18" y1="14" x2="46" y2="48" gradientUnits="userSpaceOnUse">
      <stop stop-color="#FFFFFF" stop-opacity="0.82"/>
      <stop offset="1" stop-color="#FFFFFF" stop-opacity="0.12"/>
    </linearGradient>
    <filter id="glow" x="-20%" y="-20%" width="140%" height="140%">
      <feDropShadow dx="0" dy="4" stdDeviation="5" flood-color="#7F00FF" flood-opacity="0.32"/>
    </filter>
  </defs>
  <rect width="64" height="64" rx="18" fill="#111318"/>
  <g filter="url(#glow)">
    <rect x="10" y="13" width="44" height="39" rx="13" fill="url(#box)"/>
    <path d="M17 22.5c0-2.5 2-4.5 4.5-4.5h21c2.5 0 4.5 2 4.5 4.5v4H17v-4Z" fill="url(#shine)"/>
    <path d="M21 31h22" stroke="#EDE6FF" stroke-width="3" stroke-linecap="round" opacity="0.42"/>
    <path d="M43 24v18.2c0 4.3-3.5 7.3-7.9 6.6-3.1-.5-5.1-2.6-4.8-5 .3-2.6 3-4.2 6.1-3.7 1 .2 2 .6 2.8 1.1V27.8l-14 2.8v15.6c0 4.3-3.5 7.3-7.9 6.6-3.1-.5-5.1-2.6-4.8-5 .3-2.6 3-4.2 6.1-3.7 1 .2 2 .6 2.8 1.1V27.4L43 23.1V24Z" fill="#F8F4FF"/>
  </g>
</svg>
